<!-- Two pinch bowls, Heat and Herb, on a cord run through the brass rings on their rims. Flat on purpose. -->
<svg xmlns="http://www.w3.org/2000/svg" viewBox="0 0 512 512" role="img" aria-label="Mr Pepper">
<rect width="512" height="512" fill="#2a1c15"/>
<path d="M0 360 L512 250 V512 H0 Z" fill="#b8452f"/>
<g transform="rotate(-14 256 256)">
<g transform="translate(10 16)" opacity="0.35"><circle cx="134" cy="256" r="100" fill="#000000"/><circle cx="378" cy="256" r="100" fill="#000000"/></g>
<circle cx="134" cy="256" r="100" fill="#8a1c21"/><circle cx="134" cy="256" r="76" fill="#e5484d"/><path d="M46 226 A92 92 0 0 1 104 169" stroke="#ffb3b0" stroke-width="7" stroke-linecap="round" fill="none"/><g transform="translate(134 256) scale(1.5) translate(-50 -50)"><path d="M50 24 L69 50 L50 76 L31 50 Z" fill="#8a1c21"/></g><circle cx="378" cy="256" r="100" fill="#1c5a2b"/><circle cx="378" cy="256" r="76" fill="#46a758"/><path d="M290 226 A92 92 0 0 1 348 169" stroke="#b4ecbf" stroke-width="7" stroke-linecap="round" fill="none"/><g transform="translate(378 256) scale(1.5) translate(-50 -50)"><path d="M30 70 Q29 29 71 29 Q71 71 30 70 Z" fill="#1c5a2b"/></g><circle cx="224" cy="256" r="15" fill="#1d1512" stroke="#e3b04b" stroke-width="8"/><circle cx="288" cy="256" r="15" fill="#1d1512" stroke="#e3b04b" stroke-width="8"/>
<path d="M224 256 L288 256 M256 256 L236 312 M256 256 L280 310" stroke="#efe4cf" stroke-width="13" stroke-linecap="round" fill="none"/>
<circle cx="256" cy="256" r="17" fill="#efe4cf" stroke="#2a1c15" stroke-width="5"/>
</g>
</svg>
